<mxfile host="app.diagrams.net" agent="Mozilla/5.0 (Windows NT 10.0; Win64; x64) AppleWebKit/537.36 (KHTML, like Gecko) Chrome/127.0.0.0 Safari/537.36" version="27.0.8">
  <diagram name="第 1 页" id="PmV5gp_YIV33nBAYPz4o">
    <mxGraphModel dx="1025" dy="526" grid="1" gridSize="10" guides="1" tooltips="1" connect="1" arrows="1" fold="1" page="1" pageScale="1" pageWidth="1654" pageHeight="2336" math="0" shadow="0">
      <root>
        <mxCell id="0" />
        <mxCell id="1" parent="0" />
        <mxCell id="XkWOckoOy1P9edUtYcZF-1" value="基于YOLOv11的乳腺肿块检测与评级系统" style="rounded=0;whiteSpace=wrap;html=1;" vertex="1" parent="1">
          <mxGeometry x="360" y="160" width="240" height="40" as="geometry" />
        </mxCell>
        <mxCell id="XkWOckoOy1P9edUtYcZF-2" value="" style="endArrow=none;html=1;rounded=0;" edge="1" parent="1">
          <mxGeometry width="50" height="50" relative="1" as="geometry">
            <mxPoint x="479.6" y="280" as="sourcePoint" />
            <mxPoint x="479.6" y="200" as="targetPoint" />
          </mxGeometry>
        </mxCell>
        <mxCell id="XkWOckoOy1P9edUtYcZF-3" value="" style="endArrow=none;html=1;rounded=0;" edge="1" parent="1">
          <mxGeometry width="50" height="50" relative="1" as="geometry">
            <mxPoint x="160" y="280" as="sourcePoint" />
            <mxPoint x="800" y="280" as="targetPoint" />
          </mxGeometry>
        </mxCell>
        <mxCell id="XkWOckoOy1P9edUtYcZF-4" value="" style="endArrow=classic;html=1;rounded=0;" edge="1" parent="1">
          <mxGeometry width="50" height="50" relative="1" as="geometry">
            <mxPoint x="160" y="280" as="sourcePoint" />
            <mxPoint x="160" y="320" as="targetPoint" />
          </mxGeometry>
        </mxCell>
        <mxCell id="XkWOckoOy1P9edUtYcZF-5" value="用户登录" style="rounded=0;whiteSpace=wrap;html=1;rotation=0;" vertex="1" parent="1">
          <mxGeometry x="100" y="320" width="120" height="35" as="geometry" />
        </mxCell>
        <mxCell id="XkWOckoOy1P9edUtYcZF-6" value="预处理" style="rounded=0;whiteSpace=wrap;html=1;rotation=0;" vertex="1" parent="1">
          <mxGeometry x="420" y="320" width="120" height="35" as="geometry" />
        </mxCell>
        <mxCell id="XkWOckoOy1P9edUtYcZF-7" value="图像上传" style="rounded=0;whiteSpace=wrap;html=1;rotation=0;" vertex="1" parent="1">
          <mxGeometry x="260" y="320" width="120" height="35" as="geometry" />
        </mxCell>
        <mxCell id="XkWOckoOy1P9edUtYcZF-8" value="肿块检测与分级" style="rounded=0;whiteSpace=wrap;html=1;rotation=0;" vertex="1" parent="1">
          <mxGeometry x="580" y="320" width="120" height="35" as="geometry" />
        </mxCell>
        <mxCell id="XkWOckoOy1P9edUtYcZF-9" value="结果展示与标记" style="rounded=0;whiteSpace=wrap;html=1;rotation=0;" vertex="1" parent="1">
          <mxGeometry x="740" y="320" width="120" height="35" as="geometry" />
        </mxCell>
        <mxCell id="XkWOckoOy1P9edUtYcZF-10" value="" style="endArrow=classic;html=1;rounded=0;" edge="1" parent="1">
          <mxGeometry width="50" height="50" relative="1" as="geometry">
            <mxPoint x="319.6" y="280" as="sourcePoint" />
            <mxPoint x="319.6" y="320" as="targetPoint" />
          </mxGeometry>
        </mxCell>
        <mxCell id="XkWOckoOy1P9edUtYcZF-11" value="" style="endArrow=classic;html=1;rounded=0;" edge="1" parent="1">
          <mxGeometry width="50" height="50" relative="1" as="geometry">
            <mxPoint x="479.6" y="280" as="sourcePoint" />
            <mxPoint x="479.6" y="320" as="targetPoint" />
          </mxGeometry>
        </mxCell>
        <mxCell id="XkWOckoOy1P9edUtYcZF-12" value="" style="endArrow=classic;html=1;rounded=0;" edge="1" parent="1">
          <mxGeometry width="50" height="50" relative="1" as="geometry">
            <mxPoint x="639.6" y="280" as="sourcePoint" />
            <mxPoint x="639.6" y="320" as="targetPoint" />
          </mxGeometry>
        </mxCell>
        <mxCell id="XkWOckoOy1P9edUtYcZF-13" value="" style="endArrow=classic;html=1;rounded=0;" edge="1" parent="1">
          <mxGeometry width="50" height="50" relative="1" as="geometry">
            <mxPoint x="799.6" y="280" as="sourcePoint" />
            <mxPoint x="799.6" y="320" as="targetPoint" />
          </mxGeometry>
        </mxCell>
      </root>
    </mxGraphModel>
  </diagram>
</mxfile>
